<?xml version="1.0" encoding="utf-8"?>
<!-- Generator: Adobe Illustrator 20.1.0, SVG Export Plug-In . SVG Version: 6.00 Build 0)  -->
<svg version="1.1" id="Ebene_0_xA0_Bild_1_" xmlns="http://www.w3.org/2000/svg" xmlns:xlink="http://www.w3.org/1999/xlink"
	 x="0px" y="0px" viewBox="0 0 34 204.1" style="enable-background:new 0 0 34 204.1;" xml:space="preserve">
<style type="text/css">
	.st0{fill:none;stroke:#000000;stroke-miterlimit:10;}
</style>
<g>
	<ellipse cx="17" cy="39.2" rx="12.1" ry="2"/>
	<ellipse cx="17" cy="46.4" rx="14.7" ry="2.9"/>
	<polygon points="17,44.5 18,40.2 13.3,39.6 12.3,43.9 	"/>
	<polygon points="16,40.2 17,44.5 21.7,43.9 20.7,39.6 	"/>
</g>
<g>
	<polygon points="13.2,53.2 14,48.8 10,48.2 9.1,52.5 	"/>
	<polygon points="20,48.8 20.8,53.2 24.9,52.5 24.1,48.2 	"/>
	<rect x="11.6" y="48.7" width="10.8" height="9.7"/>
	<polygon points="8.4,59.8 10.5,63.2 7.5,64.6 5.4,61.2 	"/>
	<polygon points="28.6,61.2 26.5,64.6 23.6,63.2 25.7,59.8 	"/>
	<path d="M11.8,51.7l0.5,4.6c0,0.2-0.1,0.3-0.3,0.3l-8.7,0.7c-0.2,0-0.3-0.1-0.3-0.3l-0.5-4.6c0-0.2,0.1-0.3,0.3-0.3l8.7-0.7
		C11.7,51.5,11.8,51.6,11.8,51.7z"/>
	<path d="M31.5,52.5L31,57.1c0,0.2-0.2,0.3-0.3,0.3L22,56.7c-0.2,0-0.3-0.2-0.3-0.3l0.5-4.6c0-0.2,0.2-0.3,0.3-0.3l8.7,0.7
		C31.4,52.2,31.5,52.3,31.5,52.5z"/>
	<path d="M2.8,52.5l5.5,7.4c0.1,0.2,0.1,0.5-0.1,0.6l-2.1,1.3c-0.2,0.1-0.4,0.1-0.5-0.1l-5.5-7.4C-0.1,54,0,53.7,0.2,53.6l2.1-1.3
		C2.4,52.3,2.7,52.3,2.8,52.5z"/>
	<path d="M33.9,54.2l-5.5,7.4c-0.1,0.2-0.3,0.2-0.5,0.1l-2.1-1.3c-0.2-0.1-0.3-0.4-0.1-0.6l5.5-7.4c0.1-0.2,0.3-0.2,0.5-0.1l2.1,1.3
		C34,53.7,34.1,54,33.9,54.2z"/>
</g>
<g>
	<line class="st0" x1="19.4" y1="37.9" x2="19.1" y2="21.5"/>
	<line class="st0" x1="14.9" y1="21.5" x2="14.6" y2="37.9"/>
	<path class="st0" d="M19,21.6c0,0,0-0.4-0.1-0.7c-0.2-0.6-0.7-1.5-1-2.2c-0.1-0.4-0.1-1-0.1-1"/>
	<path class="st0" d="M15,21.6c0,0,0-0.4,0.1-0.7c0.2-0.6,0.7-1.5,1-2.2c0.1-0.4,0.1-1,0.1-1"/>
	<line class="st0" x1="16.2" y1="17.8" x2="16.3" y2="0"/>
	<line class="st0" x1="17.9" y1="17.8" x2="17.7" y2="0"/>
	<rect x="16.4" width="1.3" height="1.1"/>
</g>
<g>
	<path class="st0" d="M9.1,204.1c0,0,0-7.6,0.4-21.2c0-0.1,0-0.1,0-0.2c0,0,0-0.1,0-0.1c0.3-8.9,0.7-20.3,1.3-32.8
		c1.3-27.9,2.7-59,2.5-73.9c0-2.8-1.6-5.1-2.5-6.8c0,0,0,0,0,0c-1.5-2.7-3-5-3-5"/>
	<path class="st0" d="M24.9,204.1c0,0,0-7.6-0.4-21.2c0-0.1,0-0.1,0-0.2c0,0,0-0.1,0-0.1c-0.3-8.9-0.7-20.3-1.3-32.8
		c-1.3-27.9-2.7-59-2.5-73.9c0-2.8,1.6-5.1,2.5-6.8c0,0,0,0,0,0c1.5-2.7,3-5,3-5"/>
	<rect x="9.1" y="203" width="15.8" height="1.1"/>
</g>
</svg>
